<svg width="94" height="42" viewBox="0 0 94 42" fill="none" xmlns="http://www.w3.org/2000/svg">
<path d="M28.58 32.36C28.244 33.432 27.904 34.424 27.56 35.336C27.216 36.248 26.872 37.136 26.528 38H25.364C24.94 36.776 24.564 35.484 24.236 34.124C23.916 32.764 23.616 31.284 23.336 29.684H24.56C24.672 30.308 24.788 30.932 24.908 31.556C25.028 32.18 25.152 32.788 25.28 33.38C25.408 33.964 25.536 34.524 25.664 35.06C25.792 35.596 25.924 36.092 26.06 36.548C26.38 35.708 26.72 34.788 27.08 33.788C27.44 32.78 27.776 31.74 28.088 30.668H29.096C29.408 31.74 29.748 32.78 30.116 33.788C30.484 34.788 30.828 35.708 31.148 36.548C31.276 36.1 31.404 35.608 31.532 35.072C31.66 34.536 31.784 33.976 31.904 33.392C32.032 32.8 32.156 32.192 32.276 31.568C32.396 30.936 32.512 30.308 32.624 29.684H33.812C33.524 31.284 33.216 32.764 32.888 34.124C32.568 35.484 32.2 36.776 31.784 38H30.62C30.268 37.136 29.924 36.248 29.588 35.336C29.252 34.424 28.916 33.432 28.58 32.36ZM39.813 33.836C39.813 33.124 39.917 32.496 40.125 31.952C40.341 31.408 40.629 30.956 40.989 30.596C41.357 30.228 41.781 29.952 42.261 29.768C42.749 29.584 43.265 29.492 43.809 29.492C44.345 29.492 44.849 29.584 45.321 29.768C45.801 29.952 46.221 30.228 46.581 30.596C46.941 30.956 47.225 31.408 47.433 31.952C47.649 32.496 47.757 33.124 47.757 33.836C47.757 34.548 47.649 35.176 47.433 35.72C47.225 36.264 46.941 36.72 46.581 37.088C46.221 37.448 45.801 37.72 45.321 37.904C44.849 38.088 44.345 38.18 43.809 38.18C43.265 38.18 42.749 38.088 42.261 37.904C41.781 37.72 41.357 37.448 40.989 37.088C40.629 36.72 40.341 36.264 40.125 35.72C39.917 35.176 39.813 34.548 39.813 33.836ZM41.037 33.836C41.037 34.34 41.101 34.8 41.229 35.216C41.357 35.624 41.537 35.972 41.769 36.26C42.009 36.548 42.297 36.772 42.633 36.932C42.977 37.084 43.361 37.16 43.785 37.16C44.209 37.16 44.589 37.084 44.925 36.932C45.261 36.772 45.545 36.548 45.777 36.26C46.017 35.972 46.201 35.624 46.329 35.216C46.457 34.8 46.521 34.34 46.521 33.836C46.521 33.332 46.457 32.876 46.329 32.468C46.201 32.052 46.017 31.7 45.777 31.412C45.545 31.124 45.261 30.904 44.925 30.752C44.589 30.592 44.209 30.512 43.785 30.512C43.361 30.512 42.977 30.592 42.633 30.752C42.297 30.904 42.009 31.124 41.769 31.412C41.537 31.7 41.357 32.052 41.229 32.468C41.101 32.876 41.037 33.332 41.037 33.836ZM54.3129 33.836C54.3129 33.124 54.4169 32.496 54.6249 31.952C54.8409 31.408 55.1289 30.956 55.4889 30.596C55.8569 30.228 56.2809 29.952 56.7609 29.768C57.2489 29.584 57.7649 29.492 58.3089 29.492C58.8449 29.492 59.3489 29.584 59.8209 29.768C60.3009 29.952 60.7209 30.228 61.0809 30.596C61.4409 30.956 61.7249 31.408 61.9329 31.952C62.1489 32.496 62.2569 33.124 62.2569 33.836C62.2569 34.548 62.1489 35.176 61.9329 35.72C61.7249 36.264 61.4409 36.72 61.0809 37.088C60.7209 37.448 60.3009 37.72 59.8209 37.904C59.3489 38.088 58.8449 38.18 58.3089 38.18C57.7649 38.18 57.2489 38.088 56.7609 37.904C56.2809 37.72 55.8569 37.448 55.4889 37.088C55.1289 36.72 54.8409 36.264 54.6249 35.72C54.4169 35.176 54.3129 34.548 54.3129 33.836ZM55.5369 33.836C55.5369 34.34 55.6009 34.8 55.7289 35.216C55.8569 35.624 56.0369 35.972 56.2689 36.26C56.5089 36.548 56.7969 36.772 57.1329 36.932C57.4769 37.084 57.8609 37.16 58.2849 37.16C58.7089 37.16 59.0889 37.084 59.4249 36.932C59.7609 36.772 60.0449 36.548 60.2769 36.26C60.5169 35.972 60.7009 35.624 60.8289 35.216C60.9569 34.8 61.0209 34.34 61.0209 33.836C61.0209 33.332 60.9569 32.876 60.8289 32.468C60.7009 32.052 60.5169 31.7 60.2769 31.412C60.0449 31.124 59.7609 30.904 59.4249 30.752C59.0889 30.592 58.7089 30.512 58.2849 30.512C57.8609 30.512 57.4769 30.592 57.1329 30.752C56.7969 30.904 56.5089 31.124 56.2689 31.412C56.0369 31.7 55.8569 32.052 55.7289 32.468C55.6009 32.876 55.5369 33.332 55.5369 33.836ZM75.9767 33.836C75.9767 34.556 75.8647 35.184 75.6407 35.72C75.4167 36.248 75.1007 36.688 74.6927 37.04C74.2847 37.384 73.7967 37.644 73.2287 37.82C72.6607 37.988 72.0367 38.072 71.3567 38.072C71.0207 38.072 70.6487 38.056 70.2407 38.024C69.8407 38 69.4767 37.948 69.1487 37.868V29.804C69.4767 29.724 69.8407 29.672 70.2407 29.648C70.6487 29.616 71.0207 29.6 71.3567 29.6C72.0367 29.6 72.6607 29.688 73.2287 29.864C73.7967 30.032 74.2847 30.292 74.6927 30.644C75.1007 30.988 75.4167 31.428 75.6407 31.964C75.8647 32.492 75.9767 33.116 75.9767 33.836ZM71.4527 37.052C72.5567 37.052 73.3807 36.772 73.9247 36.212C74.4687 35.644 74.7407 34.852 74.7407 33.836C74.7407 32.82 74.4687 32.032 73.9247 31.472C73.3807 30.904 72.5567 30.62 71.4527 30.62C71.1247 30.62 70.8687 30.624 70.6847 30.632C70.5087 30.64 70.3847 30.648 70.3127 30.656V37.016C70.3847 37.024 70.5087 37.032 70.6847 37.04C70.8687 37.048 71.1247 37.052 71.4527 37.052ZM82.8634 38V29.684H87.9394V30.68H84.0274V33.152H87.5074V34.124H84.0274V37.004H88.2394V38H82.8634Z" fill="white"/>
<path d="M28.38 18.62C28.82 18.62 29.18 18.5867 29.46 18.52C29.7533 18.44 29.9867 18.34 30.16 18.22C30.3333 18.0867 30.4533 17.9333 30.52 17.76C30.5867 17.5867 30.62 17.3933 30.62 17.18C30.62 16.7267 30.4067 16.3533 29.98 16.06C29.5533 15.7533 28.82 15.4267 27.78 15.08C27.3267 14.92 26.8733 14.74 26.42 14.54C25.9667 14.3267 25.56 14.0667 25.2 13.76C24.84 13.44 24.5467 13.06 24.32 12.62C24.0933 12.1667 23.98 11.62 23.98 10.98C23.98 10.34 24.1 9.76667 24.34 9.26C24.58 8.74 24.92 8.3 25.36 7.94C25.8 7.58 26.3333 7.30667 26.96 7.12C27.5867 6.92 28.2933 6.82 29.08 6.82C30.0133 6.82 30.82 6.92 31.5 7.12C32.18 7.32 32.74 7.54 33.18 7.78L32.28 10.24C31.8933 10.04 31.46 9.86667 30.98 9.72C30.5133 9.56 29.9467 9.48 29.28 9.48C28.5333 9.48 27.9933 9.58667 27.66 9.8C27.34 10 27.18 10.3133 27.18 10.74C27.18 10.9933 27.24 11.2067 27.36 11.38C27.48 11.5533 27.6467 11.7133 27.86 11.86C28.0867 11.9933 28.34 12.12 28.62 12.24C28.9133 12.3467 29.2333 12.46 29.58 12.58C30.3 12.8467 30.9267 13.1133 31.46 13.38C31.9933 13.6333 32.4333 13.9333 32.78 14.28C33.14 14.6267 33.4067 15.0333 33.58 15.5C33.7533 15.9667 33.84 16.5333 33.84 17.2C33.84 18.4933 33.3867 19.5 32.48 20.22C31.5733 20.9267 30.2067 21.28 28.38 21.28C27.7667 21.28 27.2133 21.24 26.72 21.16C26.2267 21.0933 25.7867 21.0067 25.4 20.9C25.0267 20.7933 24.7 20.68 24.42 20.56C24.1533 20.44 23.9267 20.3267 23.74 20.22L24.62 17.74C25.0333 17.9667 25.54 18.1733 26.14 18.36C26.7533 18.5333 27.5 18.62 28.38 18.62ZM46.13 7.14V9.8H41.95V21H38.83V9.8H34.65V7.14H46.13ZM50.2864 14.06C50.2864 14.74 50.3664 15.3533 50.5264 15.9C50.6997 16.4467 50.9397 16.92 51.2464 17.32C51.5664 17.7067 51.9531 18.0067 52.4064 18.22C52.8597 18.4333 53.3797 18.54 53.9664 18.54C54.5397 18.54 55.0531 18.4333 55.5064 18.22C55.9731 18.0067 56.3597 17.7067 56.6664 17.32C56.9864 16.92 57.2264 16.4467 57.3864 15.9C57.5597 15.3533 57.6464 14.74 57.6464 14.06C57.6464 13.38 57.5597 12.7667 57.3864 12.22C57.2264 11.66 56.9864 11.1867 56.6664 10.8C56.3597 10.4 55.9731 10.0933 55.5064 9.88C55.0531 9.66667 54.5397 9.56 53.9664 9.56C53.3797 9.56 52.8597 9.67333 52.4064 9.9C51.9531 10.1133 51.5664 10.42 51.2464 10.82C50.9397 11.2067 50.6997 11.68 50.5264 12.24C50.3664 12.7867 50.2864 13.3933 50.2864 14.06ZM60.8664 14.06C60.8664 15.2467 60.6864 16.2933 60.3264 17.2C59.9797 18.0933 59.4997 18.8467 58.8864 19.46C58.2731 20.06 57.5397 20.5133 56.6864 20.82C55.8464 21.1267 54.9397 21.28 53.9664 21.28C53.0197 21.28 52.1264 21.1267 51.2864 20.82C50.4464 20.5133 49.7131 20.06 49.0864 19.46C48.4597 18.8467 47.9664 18.0933 47.6064 17.2C47.2464 16.2933 47.0664 15.2467 47.0664 14.06C47.0664 12.8733 47.2531 11.8333 47.6264 10.94C47.9997 10.0333 48.4997 9.27333 49.1264 8.66C49.7664 8.04667 50.4997 7.58667 51.3264 7.28C52.1664 6.97333 53.0464 6.82 53.9664 6.82C54.9131 6.82 55.8064 6.97333 56.6464 7.28C57.4864 7.58667 58.2197 8.04667 58.8464 8.66C59.4731 9.27333 59.9664 10.0333 60.3264 10.94C60.6864 11.8333 60.8664 12.8733 60.8664 14.06ZM72.7672 21C71.8739 19.4133 70.9072 17.8467 69.8672 16.3C68.8272 14.7533 67.7205 13.2933 66.5472 11.92V21H63.4672V7.14H66.0072C66.4472 7.58 66.9339 8.12 67.4672 8.76C68.0005 9.4 68.5405 10.0867 69.0872 10.82C69.6472 11.54 70.2005 12.2933 70.7472 13.08C71.2939 13.8533 71.8072 14.6 72.2872 15.32V7.14H75.3872V21H72.7672ZM78.5844 21V7.14H87.9444V9.76H81.7044V12.48H87.2444V15.04H81.7044V18.38H88.4044V21H78.5844Z" fill="white"/>
<rect x="0.75" y="7.75" width="15.5" height="29.5" stroke="white" stroke-width="1.5"/>
</svg>
