<svg width="94" height="51" viewBox="0 0 94 51" fill="none" xmlns="http://www.w3.org/2000/svg">
<path d="M18.58 36.36C18.244 37.432 17.904 38.424 17.56 39.336C17.216 40.248 16.872 41.136 16.528 42H15.364C14.94 40.776 14.564 39.484 14.236 38.124C13.916 36.764 13.616 35.284 13.336 33.684H14.56C14.672 34.308 14.788 34.932 14.908 35.556C15.028 36.18 15.152 36.788 15.28 37.38C15.408 37.964 15.536 38.524 15.664 39.06C15.792 39.596 15.924 40.092 16.06 40.548C16.38 39.708 16.72 38.788 17.08 37.788C17.44 36.78 17.776 35.74 18.088 34.668H19.096C19.408 35.74 19.748 36.78 20.116 37.788C20.484 38.788 20.828 39.708 21.148 40.548C21.276 40.1 21.404 39.608 21.532 39.072C21.66 38.536 21.784 37.976 21.904 37.392C22.032 36.8 22.156 36.192 22.276 35.568C22.396 34.936 22.512 34.308 22.624 33.684H23.812C23.524 35.284 23.216 36.764 22.888 38.124C22.568 39.484 22.2 40.776 21.784 42H20.62C20.268 41.136 19.924 40.248 19.588 39.336C19.252 38.424 18.916 37.432 18.58 36.36ZM29.813 37.836C29.813 37.124 29.917 36.496 30.125 35.952C30.341 35.408 30.629 34.956 30.989 34.596C31.357 34.228 31.781 33.952 32.261 33.768C32.749 33.584 33.265 33.492 33.809 33.492C34.345 33.492 34.849 33.584 35.321 33.768C35.801 33.952 36.221 34.228 36.581 34.596C36.941 34.956 37.225 35.408 37.433 35.952C37.649 36.496 37.757 37.124 37.757 37.836C37.757 38.548 37.649 39.176 37.433 39.72C37.225 40.264 36.941 40.72 36.581 41.088C36.221 41.448 35.801 41.72 35.321 41.904C34.849 42.088 34.345 42.18 33.809 42.18C33.265 42.18 32.749 42.088 32.261 41.904C31.781 41.72 31.357 41.448 30.989 41.088C30.629 40.72 30.341 40.264 30.125 39.72C29.917 39.176 29.813 38.548 29.813 37.836ZM31.037 37.836C31.037 38.34 31.101 38.8 31.229 39.216C31.357 39.624 31.537 39.972 31.769 40.26C32.009 40.548 32.297 40.772 32.633 40.932C32.977 41.084 33.361 41.16 33.785 41.16C34.209 41.16 34.589 41.084 34.925 40.932C35.261 40.772 35.545 40.548 35.777 40.26C36.017 39.972 36.201 39.624 36.329 39.216C36.457 38.8 36.521 38.34 36.521 37.836C36.521 37.332 36.457 36.876 36.329 36.468C36.201 36.052 36.017 35.7 35.777 35.412C35.545 35.124 35.261 34.904 34.925 34.752C34.589 34.592 34.209 34.512 33.785 34.512C33.361 34.512 32.977 34.592 32.633 34.752C32.297 34.904 32.009 35.124 31.769 35.412C31.537 35.7 31.357 36.052 31.229 36.468C31.101 36.876 31.037 37.332 31.037 37.836ZM44.3129 37.836C44.3129 37.124 44.4169 36.496 44.6249 35.952C44.8409 35.408 45.1289 34.956 45.4889 34.596C45.8569 34.228 46.2809 33.952 46.7609 33.768C47.2489 33.584 47.7649 33.492 48.3089 33.492C48.8449 33.492 49.3489 33.584 49.8209 33.768C50.3009 33.952 50.7209 34.228 51.0809 34.596C51.4409 34.956 51.7249 35.408 51.9329 35.952C52.1489 36.496 52.2569 37.124 52.2569 37.836C52.2569 38.548 52.1489 39.176 51.9329 39.72C51.7249 40.264 51.4409 40.72 51.0809 41.088C50.7209 41.448 50.3009 41.72 49.8209 41.904C49.3489 42.088 48.8449 42.18 48.3089 42.18C47.7649 42.18 47.2489 42.088 46.7609 41.904C46.2809 41.72 45.8569 41.448 45.4889 41.088C45.1289 40.72 44.8409 40.264 44.6249 39.72C44.4169 39.176 44.3129 38.548 44.3129 37.836ZM45.5369 37.836C45.5369 38.34 45.6009 38.8 45.7289 39.216C45.8569 39.624 46.0369 39.972 46.2689 40.26C46.5089 40.548 46.7969 40.772 47.1329 40.932C47.4769 41.084 47.8609 41.16 48.2849 41.16C48.7089 41.16 49.0889 41.084 49.4249 40.932C49.7609 40.772 50.0449 40.548 50.2769 40.26C50.5169 39.972 50.7009 39.624 50.8289 39.216C50.9569 38.8 51.0209 38.34 51.0209 37.836C51.0209 37.332 50.9569 36.876 50.8289 36.468C50.7009 36.052 50.5169 35.7 50.2769 35.412C50.0449 35.124 49.7609 34.904 49.4249 34.752C49.0889 34.592 48.7089 34.512 48.2849 34.512C47.8609 34.512 47.4769 34.592 47.1329 34.752C46.7969 34.904 46.5089 35.124 46.2689 35.412C46.0369 35.7 45.8569 36.052 45.7289 36.468C45.6009 36.876 45.5369 37.332 45.5369 37.836ZM65.9767 37.836C65.9767 38.556 65.8647 39.184 65.6407 39.72C65.4167 40.248 65.1007 40.688 64.6927 41.04C64.2847 41.384 63.7967 41.644 63.2287 41.82C62.6607 41.988 62.0367 42.072 61.3567 42.072C61.0207 42.072 60.6487 42.056 60.2407 42.024C59.8407 42 59.4767 41.948 59.1487 41.868V33.804C59.4767 33.724 59.8407 33.672 60.2407 33.648C60.6487 33.616 61.0207 33.6 61.3567 33.6C62.0367 33.6 62.6607 33.688 63.2287 33.864C63.7967 34.032 64.2847 34.292 64.6927 34.644C65.1007 34.988 65.4167 35.428 65.6407 35.964C65.8647 36.492 65.9767 37.116 65.9767 37.836ZM61.4527 41.052C62.5567 41.052 63.3807 40.772 63.9247 40.212C64.4687 39.644 64.7407 38.852 64.7407 37.836C64.7407 36.82 64.4687 36.032 63.9247 35.472C63.3807 34.904 62.5567 34.62 61.4527 34.62C61.1247 34.62 60.8687 34.624 60.6847 34.632C60.5087 34.64 60.3847 34.648 60.3127 34.656V41.016C60.3847 41.024 60.5087 41.032 60.6847 41.04C60.8687 41.048 61.1247 41.052 61.4527 41.052ZM72.8634 42V33.684H77.9394V34.68H74.0274V37.152H77.5074V38.124H74.0274V41.004H78.2394V42H72.8634Z" fill="white"/>
<path d="M18.38 22.62C18.82 22.62 19.18 22.5867 19.46 22.52C19.7533 22.44 19.9867 22.34 20.16 22.22C20.3333 22.0867 20.4533 21.9333 20.52 21.76C20.5867 21.5867 20.62 21.3933 20.62 21.18C20.62 20.7267 20.4067 20.3533 19.98 20.06C19.5533 19.7533 18.82 19.4267 17.78 19.08C17.3267 18.92 16.8733 18.74 16.42 18.54C15.9667 18.3267 15.56 18.0667 15.2 17.76C14.84 17.44 14.5467 17.06 14.32 16.62C14.0933 16.1667 13.98 15.62 13.98 14.98C13.98 14.34 14.1 13.7667 14.34 13.26C14.58 12.74 14.92 12.3 15.36 11.94C15.8 11.58 16.3333 11.3067 16.96 11.12C17.5867 10.92 18.2933 10.82 19.08 10.82C20.0133 10.82 20.82 10.92 21.5 11.12C22.18 11.32 22.74 11.54 23.18 11.78L22.28 14.24C21.8933 14.04 21.46 13.8667 20.98 13.72C20.5133 13.56 19.9467 13.48 19.28 13.48C18.5333 13.48 17.9933 13.5867 17.66 13.8C17.34 14 17.18 14.3133 17.18 14.74C17.18 14.9933 17.24 15.2067 17.36 15.38C17.48 15.5533 17.6467 15.7133 17.86 15.86C18.0867 15.9933 18.34 16.12 18.62 16.24C18.9133 16.3467 19.2333 16.46 19.58 16.58C20.3 16.8467 20.9267 17.1133 21.46 17.38C21.9933 17.6333 22.4333 17.9333 22.78 18.28C23.14 18.6267 23.4067 19.0333 23.58 19.5C23.7533 19.9667 23.84 20.5333 23.84 21.2C23.84 22.4933 23.3867 23.5 22.48 24.22C21.5733 24.9267 20.2067 25.28 18.38 25.28C17.7667 25.28 17.2133 25.24 16.72 25.16C16.2267 25.0933 15.7867 25.0067 15.4 24.9C15.0267 24.7933 14.7 24.68 14.42 24.56C14.1533 24.44 13.9267 24.3267 13.74 24.22L14.62 21.74C15.0333 21.9667 15.54 22.1733 16.14 22.36C16.7533 22.5333 17.5 22.62 18.38 22.62ZM36.13 11.14V13.8H31.95V25H28.83V13.8H24.65V11.14H36.13ZM40.2864 18.06C40.2864 18.74 40.3664 19.3533 40.5264 19.9C40.6997 20.4467 40.9397 20.92 41.2464 21.32C41.5664 21.7067 41.9531 22.0067 42.4064 22.22C42.8597 22.4333 43.3797 22.54 43.9664 22.54C44.5397 22.54 45.0531 22.4333 45.5064 22.22C45.9731 22.0067 46.3597 21.7067 46.6664 21.32C46.9864 20.92 47.2264 20.4467 47.3864 19.9C47.5597 19.3533 47.6464 18.74 47.6464 18.06C47.6464 17.38 47.5597 16.7667 47.3864 16.22C47.2264 15.66 46.9864 15.1867 46.6664 14.8C46.3597 14.4 45.9731 14.0933 45.5064 13.88C45.0531 13.6667 44.5397 13.56 43.9664 13.56C43.3797 13.56 42.8597 13.6733 42.4064 13.9C41.9531 14.1133 41.5664 14.42 41.2464 14.82C40.9397 15.2067 40.6997 15.68 40.5264 16.24C40.3664 16.7867 40.2864 17.3933 40.2864 18.06ZM50.8664 18.06C50.8664 19.2467 50.6864 20.2933 50.3264 21.2C49.9797 22.0933 49.4997 22.8467 48.8864 23.46C48.2731 24.06 47.5397 24.5133 46.6864 24.82C45.8464 25.1267 44.9397 25.28 43.9664 25.28C43.0197 25.28 42.1264 25.1267 41.2864 24.82C40.4464 24.5133 39.7131 24.06 39.0864 23.46C38.4597 22.8467 37.9664 22.0933 37.6064 21.2C37.2464 20.2933 37.0664 19.2467 37.0664 18.06C37.0664 16.8733 37.2531 15.8333 37.6264 14.94C37.9997 14.0333 38.4997 13.2733 39.1264 12.66C39.7664 12.0467 40.4997 11.5867 41.3264 11.28C42.1664 10.9733 43.0464 10.82 43.9664 10.82C44.9131 10.82 45.8064 10.9733 46.6464 11.28C47.4864 11.5867 48.2197 12.0467 48.8464 12.66C49.4731 13.2733 49.9664 14.0333 50.3264 14.94C50.6864 15.8333 50.8664 16.8733 50.8664 18.06ZM62.7672 25C61.8739 23.4133 60.9072 21.8467 59.8672 20.3C58.8272 18.7533 57.7205 17.2933 56.5472 15.92V25H53.4672V11.14H56.0072C56.4472 11.58 56.9339 12.12 57.4672 12.76C58.0005 13.4 58.5405 14.0867 59.0872 14.82C59.6472 15.54 60.2005 16.2933 60.7472 17.08C61.2939 17.8533 61.8072 18.6 62.2872 19.32V11.14H65.3872V25H62.7672ZM68.5844 25V11.14H77.9444V13.76H71.7044V16.48H77.2444V19.04H71.7044V22.38H78.4044V25H68.5844Z" fill="white"/>
<rect x="0.75" y="0.75" width="92.5" height="49.5" stroke="white" stroke-width="1.5"/>
</svg>
