<svg width="67" height="42" viewBox="0 0 67 42" fill="none" xmlns="http://www.w3.org/2000/svg">
<path d="M5.58 32.36C5.244 33.432 4.904 34.424 4.56 35.336C4.216 36.248 3.872 37.136 3.528 38H2.364C1.94 36.776 1.564 35.484 1.236 34.124C0.916 32.764 0.616 31.284 0.336 29.684H1.56C1.672 30.308 1.788 30.932 1.908 31.556C2.028 32.18 2.152 32.788 2.28 33.38C2.408 33.964 2.536 34.524 2.664 35.06C2.792 35.596 2.924 36.092 3.06 36.548C3.38 35.708 3.72 34.788 4.08 33.788C4.44 32.78 4.776 31.74 5.088 30.668H6.096C6.408 31.74 6.748 32.78 7.116 33.788C7.484 34.788 7.828 35.708 8.148 36.548C8.276 36.1 8.404 35.608 8.532 35.072C8.66 34.536 8.784 33.976 8.904 33.392C9.032 32.8 9.156 32.192 9.276 31.568C9.396 30.936 9.512 30.308 9.624 29.684H10.812C10.524 31.284 10.216 32.764 9.888 34.124C9.568 35.484 9.2 36.776 8.784 38H7.62C7.268 37.136 6.924 36.248 6.588 35.336C6.252 34.424 5.916 33.432 5.58 32.36ZM16.333 33.836C16.333 33.124 16.437 32.496 16.645 31.952C16.861 31.408 17.149 30.956 17.509 30.596C17.877 30.228 18.301 29.952 18.781 29.768C19.269 29.584 19.785 29.492 20.329 29.492C20.865 29.492 21.369 29.584 21.841 29.768C22.321 29.952 22.741 30.228 23.101 30.596C23.461 30.956 23.745 31.408 23.953 31.952C24.169 32.496 24.277 33.124 24.277 33.836C24.277 34.548 24.169 35.176 23.953 35.72C23.745 36.264 23.461 36.72 23.101 37.088C22.741 37.448 22.321 37.72 21.841 37.904C21.369 38.088 20.865 38.18 20.329 38.18C19.785 38.18 19.269 38.088 18.781 37.904C18.301 37.72 17.877 37.448 17.509 37.088C17.149 36.72 16.861 36.264 16.645 35.72C16.437 35.176 16.333 34.548 16.333 33.836ZM17.557 33.836C17.557 34.34 17.621 34.8 17.749 35.216C17.877 35.624 18.057 35.972 18.289 36.26C18.529 36.548 18.817 36.772 19.153 36.932C19.497 37.084 19.881 37.16 20.305 37.16C20.729 37.16 21.109 37.084 21.445 36.932C21.781 36.772 22.065 36.548 22.297 36.26C22.537 35.972 22.721 35.624 22.849 35.216C22.977 34.8 23.041 34.34 23.041 33.836C23.041 33.332 22.977 32.876 22.849 32.468C22.721 32.052 22.537 31.7 22.297 31.412C22.065 31.124 21.781 30.904 21.445 30.752C21.109 30.592 20.729 30.512 20.305 30.512C19.881 30.512 19.497 30.592 19.153 30.752C18.817 30.904 18.529 31.124 18.289 31.412C18.057 31.7 17.877 32.052 17.749 32.468C17.621 32.876 17.557 33.332 17.557 33.836ZM30.3529 33.836C30.3529 33.124 30.4569 32.496 30.6649 31.952C30.8809 31.408 31.1689 30.956 31.5289 30.596C31.8969 30.228 32.3209 29.952 32.8009 29.768C33.2889 29.584 33.8049 29.492 34.3489 29.492C34.8849 29.492 35.3889 29.584 35.8609 29.768C36.3409 29.952 36.7609 30.228 37.1209 30.596C37.4809 30.956 37.7649 31.408 37.9729 31.952C38.1889 32.496 38.2969 33.124 38.2969 33.836C38.2969 34.548 38.1889 35.176 37.9729 35.72C37.7649 36.264 37.4809 36.72 37.1209 37.088C36.7609 37.448 36.3409 37.72 35.8609 37.904C35.3889 38.088 34.8849 38.18 34.3489 38.18C33.8049 38.18 33.2889 38.088 32.8009 37.904C32.3209 37.72 31.8969 37.448 31.5289 37.088C31.1689 36.72 30.8809 36.264 30.6649 35.72C30.4569 35.176 30.3529 34.548 30.3529 33.836ZM31.5769 33.836C31.5769 34.34 31.6409 34.8 31.7689 35.216C31.8969 35.624 32.0769 35.972 32.3089 36.26C32.5489 36.548 32.8369 36.772 33.1729 36.932C33.5169 37.084 33.9009 37.16 34.3249 37.16C34.7489 37.16 35.1289 37.084 35.4649 36.932C35.8009 36.772 36.0849 36.548 36.3169 36.26C36.5569 35.972 36.7409 35.624 36.8689 35.216C36.9969 34.8 37.0609 34.34 37.0609 33.836C37.0609 33.332 36.9969 32.876 36.8689 32.468C36.7409 32.052 36.5569 31.7 36.3169 31.412C36.0849 31.124 35.8009 30.904 35.4649 30.752C35.1289 30.592 34.7489 30.512 34.3249 30.512C33.9009 30.512 33.5169 30.592 33.1729 30.752C32.8369 30.904 32.5489 31.124 32.3089 31.412C32.0769 31.7 31.8969 32.052 31.7689 32.468C31.6409 32.876 31.5769 33.332 31.5769 33.836ZM51.5367 33.836C51.5367 34.556 51.4247 35.184 51.2007 35.72C50.9767 36.248 50.6607 36.688 50.2527 37.04C49.8447 37.384 49.3567 37.644 48.7887 37.82C48.2207 37.988 47.5967 38.072 46.9167 38.072C46.5807 38.072 46.2087 38.056 45.8007 38.024C45.4007 38 45.0367 37.948 44.7087 37.868V29.804C45.0367 29.724 45.4007 29.672 45.8007 29.648C46.2087 29.616 46.5807 29.6 46.9167 29.6C47.5967 29.6 48.2207 29.688 48.7887 29.864C49.3567 30.032 49.8447 30.292 50.2527 30.644C50.6607 30.988 50.9767 31.428 51.2007 31.964C51.4247 32.492 51.5367 33.116 51.5367 33.836ZM47.0127 37.052C48.1167 37.052 48.9407 36.772 49.4847 36.212C50.0287 35.644 50.3007 34.852 50.3007 33.836C50.3007 32.82 50.0287 32.032 49.4847 31.472C48.9407 30.904 48.1167 30.62 47.0127 30.62C46.6847 30.62 46.4287 30.624 46.2447 30.632C46.0687 30.64 45.9447 30.648 45.8727 30.656V37.016C45.9447 37.024 46.0687 37.032 46.2447 37.04C46.4287 37.048 46.6847 37.052 47.0127 37.052ZM57.9434 38V29.684H63.0194V30.68H59.1074V33.152H62.5874V34.124H59.1074V37.004H63.3194V38H57.9434Z" fill="white"/>
<path d="M5.38 18.62C5.82 18.62 6.18 18.5867 6.46 18.52C6.75333 18.44 6.98667 18.34 7.16 18.22C7.33333 18.0867 7.45333 17.9333 7.52 17.76C7.58667 17.5867 7.62 17.3933 7.62 17.18C7.62 16.7267 7.40667 16.3533 6.98 16.06C6.55333 15.7533 5.82 15.4267 4.78 15.08C4.32667 14.92 3.87333 14.74 3.42 14.54C2.96667 14.3267 2.56 14.0667 2.2 13.76C1.84 13.44 1.54667 13.06 1.32 12.62C1.09333 12.1667 0.98 11.62 0.98 10.98C0.98 10.34 1.1 9.76667 1.34 9.26C1.58 8.74 1.92 8.3 2.36 7.94C2.8 7.58 3.33333 7.30667 3.96 7.12C4.58667 6.92 5.29333 6.82 6.08 6.82C7.01333 6.82 7.82 6.92 8.5 7.12C9.18 7.32 9.74 7.54 10.18 7.78L9.28 10.24C8.89333 10.04 8.46 9.86667 7.98 9.72C7.51333 9.56 6.94667 9.48 6.28 9.48C5.53333 9.48 4.99333 9.58667 4.66 9.8C4.34 10 4.18 10.3133 4.18 10.74C4.18 10.9933 4.24 11.2067 4.36 11.38C4.48 11.5533 4.64667 11.7133 4.86 11.86C5.08667 11.9933 5.34 12.12 5.62 12.24C5.91333 12.3467 6.23333 12.46 6.58 12.58C7.3 12.8467 7.92667 13.1133 8.46 13.38C8.99333 13.6333 9.43333 13.9333 9.78 14.28C10.14 14.6267 10.4067 15.0333 10.58 15.5C10.7533 15.9667 10.84 16.5333 10.84 17.2C10.84 18.4933 10.3867 19.5 9.48 20.22C8.57333 20.9267 7.20667 21.28 5.38 21.28C4.76667 21.28 4.21333 21.24 3.72 21.16C3.22667 21.0933 2.78667 21.0067 2.4 20.9C2.02667 20.7933 1.7 20.68 1.42 20.56C1.15333 20.44 0.926667 20.3267 0.74 20.22L1.62 17.74C2.03333 17.9667 2.54 18.1733 3.14 18.36C3.75333 18.5333 4.5 18.62 5.38 18.62ZM23.13 7.14V9.8H18.95V21H15.83V9.8H11.65V7.14H23.13ZM27.2864 14.06C27.2864 14.74 27.3664 15.3533 27.5264 15.9C27.6997 16.4467 27.9397 16.92 28.2464 17.32C28.5664 17.7067 28.9531 18.0067 29.4064 18.22C29.8597 18.4333 30.3797 18.54 30.9664 18.54C31.5397 18.54 32.0531 18.4333 32.5064 18.22C32.9731 18.0067 33.3597 17.7067 33.6664 17.32C33.9864 16.92 34.2264 16.4467 34.3864 15.9C34.5597 15.3533 34.6464 14.74 34.6464 14.06C34.6464 13.38 34.5597 12.7667 34.3864 12.22C34.2264 11.66 33.9864 11.1867 33.6664 10.8C33.3597 10.4 32.9731 10.0933 32.5064 9.88C32.0531 9.66667 31.5397 9.56 30.9664 9.56C30.3797 9.56 29.8597 9.67333 29.4064 9.9C28.9531 10.1133 28.5664 10.42 28.2464 10.82C27.9397 11.2067 27.6997 11.68 27.5264 12.24C27.3664 12.7867 27.2864 13.3933 27.2864 14.06ZM37.8664 14.06C37.8664 15.2467 37.6864 16.2933 37.3264 17.2C36.9797 18.0933 36.4997 18.8467 35.8864 19.46C35.2731 20.06 34.5397 20.5133 33.6864 20.82C32.8464 21.1267 31.9397 21.28 30.9664 21.28C30.0197 21.28 29.1264 21.1267 28.2864 20.82C27.4464 20.5133 26.7131 20.06 26.0864 19.46C25.4597 18.8467 24.9664 18.0933 24.6064 17.2C24.2464 16.2933 24.0664 15.2467 24.0664 14.06C24.0664 12.8733 24.2531 11.8333 24.6264 10.94C24.9997 10.0333 25.4997 9.27333 26.1264 8.66C26.7664 8.04667 27.4997 7.58667 28.3264 7.28C29.1664 6.97333 30.0464 6.82 30.9664 6.82C31.9131 6.82 32.8064 6.97333 33.6464 7.28C34.4864 7.58667 35.2197 8.04667 35.8464 8.66C36.4731 9.27333 36.9664 10.0333 37.3264 10.94C37.6864 11.8333 37.8664 12.8733 37.8664 14.06ZM49.7672 21C48.8739 19.4133 47.9072 17.8467 46.8672 16.3C45.8272 14.7533 44.7205 13.2933 43.5472 11.92V21H40.4672V7.14H43.0072C43.4472 7.58 43.9339 8.12 44.4672 8.76C45.0005 9.4 45.5405 10.0867 46.0872 10.82C46.6472 11.54 47.2005 12.2933 47.7472 13.08C48.2939 13.8533 48.8072 14.6 49.2872 15.32V7.14H52.3872V21H49.7672ZM55.5844 21V7.14H64.9444V9.76H58.7044V12.48H64.2444V15.04H58.7044V18.38H65.4044V21H55.5844Z" fill="white"/>
</svg>
